<svg xmlns="http://www.w3.org/2000/svg" viewBox="0 0 32 32" aria-hidden="true" role="presentation" focusable="false" style="display: block; height: 24px; width: 24px; fill: currentcolor;"><path d="M9 29v-2h2v-2H6a5 5 0 0 1-5-4.78V8a5 5 0 0 1 4.78-5H26a5 5 0 0 1 5 4.78V20a5 5 0 0 1-4.78 5H21v2h2v2zm10-4h-6v2h6zm7-20H6a3 3 0 0 0-3 2.82V20a3 3 0 0 0 2.82 3H26a3 3 0 0 0 3-2.82V8a3 3 0 0 0-2.82-3z"></path></svg>'],
    ['name' => 'Asciugacapelli', 'icon' => '<svg xmlns="http://www.w3.org/2000/svg" viewBox="0 0 32 32" aria-hidden="true" role="presentation" focusable="false" style="display: block; height: 24px; width: 24px; fill: currentcolor;"><path d="M14 27v.2a4 4 0 0 1-3.8 3.8H4v-2h6.15a2 2 0 0 0 1.84-1.84L12 27zM10 1c.54 0 1.07.05 1.58.14l.38.07 17.45 3.65a2 2 0 0 1 1.58 1.79l.01.16v6.38a2 2 0 0 1-1.43 1.91l-.16.04-13.55 2.83 1.76 6.5A2 2 0 0 1 15.87 27l-.18.01h-3.93a2 2 0 0 1-1.88-1.32l-.05-.15-1.88-6.76A9 9 0 0 1 10 1zm5.7 24-1.8-6.62-1.81.38a9 9 0 0 1-1.67.23h-.33L11.76 25zM10 3a7 7 0 1 0 1.32 13.88l.33-.07L29 13.18V6.8L11.54 3.17A7.03 7.03 0 0 0 10 3zm0 2a5 5 0 1 1 0 10 5 5 0 0 1 0-10zm0 2a3 3 0 1 0 0 6 3 3 0 0 0 0-6z"></path></svg>